<svg width="32" height="32" viewBox="0 0 100 65" fill="none" xmlns="http://www.w3.org/2000/svg">
<path fill-rule="evenodd" clip-rule="evenodd" d="M96.2749 28.9528C96.7684 28.1567 97.209 27.3139 97.5898 26.4271C101.717 16.8168 97.2727 5.68016 87.6625 1.55263C78.0522 -2.57491 66.9156 1.86971 62.788 11.48C62.4072 12.3667 62.0993 13.2665 61.8617 14.1726C61.3156 16.2556 61.3056 20.4399 61.3056 20.4399L61.2902 62.956L92.1127 33.6713C92.1127 33.6713 95.1403 30.7831 96.2749 28.9528ZM84.2858 22.76C84.4192 22.5466 84.5376 22.3204 84.639 22.0821C85.7382 19.4993 84.4304 16.4698 81.718 15.3154C79.0055 14.161 75.9155 15.3189 74.8163 17.9016C74.7149 18.1399 74.634 18.3821 74.5728 18.6262C74.432 19.1874 74.4534 20.319 74.4534 20.319C74.4534 20.319 74.7214 28.0009 74.6948 31.8175C77.4268 29.1523 83.1486 24.0196 83.1486 24.0196C83.1486 24.0196 83.9789 23.2505 84.2858 22.76Z" fill="#AB34D3" width="32" height="32"/>
</svg>
