<svg width="64" height="64" viewBox="0 0 64 64" xmlns="http://www.w3.org/2000/svg">

  <path d="M32 0C20 0 10 10 10 22C10 36 32 64 32 64C32 64 54 36 54 22C54 10 44 0 32 0Z" fill="#7A00B5"/>


  <path d="M22 18C22 15.8 23.8 14 26 14H38C40.2 14 42 15.8 42 18V34C42 35.1 41.1 36 40 36V38C40 39.1 39.1 40 38 40H36C34.9 40 34 39.1 34 38V36H30V38C30 39.1 29.1 40 28 40H26C24.9 40 24 39.1 24 38V36C22.9 36 22 35.1 22 34V18Z" fill="white"/>


  <rect x="27" y="16" width="10" height="4" rx="1" fill="#7A00B5"/>


  <circle cx="28" cy="32" r="2" fill="#7A00B5"/>
  <circle cx="36" cy="32" r="2" fill="#7A00B5"/>
</svg>
