<svg width="32" height="32" viewBox="0 0 100 65" fill="none" xmlns="http://www.w3.org/2000/svg">
    <path d="M14.0288 15.0079V55.7205C14.0288 60.8515 9.86931 65 4.73834 65H3.93533e-06V50.9712V15.8701C3.93533e-06 15.8701 -6.49781e-06 15.8778 6.61111e-06 15.8554L4.89776e-05 15.8408L0.000200159 15.8116C0.000341975 15.791 0.000572538 15.7638 0.000926632 15.7385C0.00163393 15.688 0.0028358 15.6316 0.00481632 15.5632C0.00877112 15.4265 0.0158642 15.2548 0.0284599 15.0517C0.0535137 14.6478 0.101099 14.1038 0.192339 13.4735C0.369613 12.2487 0.73702 10.5011 1.54034 8.65108C2.34454 6.79903 3.69937 4.58805 5.983 2.83498C8.36166 1.00897 11.3248 0 14.6941 0C18.0634 0 21.0266 1.00897 23.4052 2.83498C25.6889 4.58805 27.0437 6.79903 27.8479 8.65108C28.6512 10.5011 29.0186 12.2487 29.1959 13.4735C29.2871 14.1038 29.3225 14.4332 29.3598 15.0517C29.3718 15.2513 29.3834 15.5632 29.3834 15.5632C29.3854 15.6316 29.3873 15.7385 29.3873 15.7385L29.388 15.8116L29.3882 49.7875C29.3677 50.2073 29.4078 50.9712 30.0026 50.9712C30.5973 50.9712 30.6374 50.2073 30.6169 49.7875L30.6169 15.8554L30.6169 15.8408L30.6171 15.8116L30.6173 15.7824L30.6178 15.7385C30.6185 15.688 30.6197 15.6316 30.6217 15.5632C30.6256 15.4265 30.6327 15.2548 30.6453 15.0517C30.6704 14.6478 30.718 14.1038 30.8092 13.4735C30.9865 12.2487 31.3539 10.5011 32.1572 8.65108C32.9614 6.79903 34.3162 4.58805 36.5999 2.83498C38.9785 1.00897 41.9417 0 45.311 0C48.6803 0 51.6434 1.00897 54.0221 2.83498C56.3057 4.58805 57.6606 6.79903 58.4648 8.65108C59.2681 10.5011 59.6355 12.2487 59.8128 13.4735C59.904 14.1038 59.9516 14.6478 59.9766 15.0517C59.9892 15.2548 59.9963 15.4265 60.0003 15.5632C60.0023 15.6316 60.0035 15.688 60.0042 15.7385L60.0047 15.7824L60.0049 15.8116L60.0051 50.5036L59.9766 64.5324H55.3288C50.1636 64.5324 45.9763 60.3451 45.9763 55.1799V15.0079C45.9566 14.6329 45.8089 14.0288 45.311 14.0288C44.8131 14.0288 44.6653 14.6329 44.6456 15.0079V48.5746L44.6458 48.5806C44.6464 48.6025 44.6469 48.6231 44.6474 48.6477C44.6502 48.7878 44.6516 48.9639 44.6488 49.1738C44.6433 49.5911 44.6213 50.1547 44.5585 50.8105C44.4366 52.0823 44.1431 53.9218 43.3937 55.8667C42.6432 57.8145 41.3213 60.1505 38.9788 62.0189C36.5363 63.967 33.4718 65 30.0026 65C26.5333 65 23.4688 63.967 21.0263 62.0189C18.6838 60.1505 17.3619 57.8145 16.6114 55.8667C15.862 53.9218 15.5685 52.0823 15.4466 50.8105C15.3838 50.1547 15.3618 49.5911 15.3563 49.1738C15.3535 48.9639 15.3549 48.7878 15.3577 48.6477L15.3595 48.5746V15.0079C15.3397 14.6329 15.192 14.0288 14.6941 14.0288C14.1962 14.0288 14.0485 14.6329 14.0288 15.0079Z" fill="#7A00A3"/>
</svg>
