<svg width="34" height="34" viewBox="0 0 64 64" xmlns="http://www.w3.org/2000/svg">
  <!-- Purple map pin background -->
  <path d="M32 0C20 0 10 10 10 22C10 36 32 64 32 64C32 64 54 36 54 22C54 10 44 0 32 0Z" fill="#7A00B5"/>

  <!-- Bus body with rounded corners and "smiling" bottom edge -->
  <rect x="22" y="16" width="20" height="20" rx="4" fill="white"/>

  <!-- Bus window (the "eyes") -->
  <rect x="26" y="18" width="12" height="5" rx="1" fill="#7A00B5"/>

  <!-- Bus headlights (eyes) -->
  <circle cx="27" cy="30" r="2" fill="#7A00B5"/>
  <circle cx="37" cy="30" r="2" fill="#7A00B5"/>

  <!-- Smile below the headlights -->
  <path d="M27 33C28 35 36 35 37 33" stroke="#7A00B5" stroke-width="2" stroke-linecap="round"/>

  <!-- Live signal lines (indicating the bus is active or live) -->
  <path d="M16 8C18 5 20 3 23 2" stroke="#AB34D3" stroke-width="2" stroke-linecap="round"/>
  <path d="M48 8C46 5 44 3 41 2" stroke="#AB34D3" stroke-width="2" stroke-linecap="round"/>
</svg>
