<svg width="192" height="192" viewBox="0 0 192 192" fill="none" xmlns="http://www.w3.org/2000/svg">
<path d="M34.9231 65.6288V135.154C34.9231 143.916 27.83 151 19.0802 151H11V127.043V67.1012C11 67.1012 11 67.1145 11 67.0762L11.0001 67.0513L11.0003 67.0013C11.0006 66.9661 11.001 66.9197 11.0016 66.8766C11.0028 66.7903 11.0048 66.6939 11.0082 66.5771C11.015 66.3438 11.0271 66.0504 11.0485 65.7037C11.0913 65.014 11.1724 64.085 11.328 63.0085C11.6303 60.917 12.2568 57.9327 13.6267 54.7734C14.9981 51.6107 17.3085 47.835 21.2027 44.8413C25.259 41.723 30.3121 40 36.0577 40C41.8033 40 46.8563 41.723 50.9126 44.8413C54.8069 47.835 57.1173 51.6107 58.4886 54.7734C59.8585 57.9327 60.4851 60.917 60.7874 63.0085C60.943 64.085 61.0033 64.6474 61.0668 65.7037C61.0873 66.0445 61.1072 66.5771 61.1072 66.5771C61.1105 66.6939 61.1138 66.8766 61.1138 66.8766L61.115 67.0013L61.1154 125.022C61.0804 125.739 61.1488 127.043 62.163 127.043C63.1771 127.043 63.2456 125.739 63.2106 125.022L63.2106 67.0762L63.2106 67.0513L63.2109 67.0013L63.2113 66.9514L63.2121 66.8766C63.2133 66.7903 63.2154 66.6939 63.2188 66.5771C63.2255 66.3438 63.2376 66.0504 63.2591 65.7037C63.3018 65.014 63.383 64.085 63.5385 63.0085C63.8408 60.917 64.4674 57.9327 65.8373 54.7734C67.2087 51.6107 69.519 47.835 73.4133 44.8413C77.4696 41.723 82.5226 40 88.2682 40C94.0139 40 99.0669 41.723 103.123 44.8413C107.017 47.835 109.328 51.6107 110.699 54.7734C112.069 57.9327 112.696 60.917 112.998 63.0085C113.154 64.085 113.235 65.014 113.277 65.7037C113.299 66.0504 113.311 66.3438 113.318 66.5771C113.321 66.6939 113.323 66.7903 113.324 66.8766L113.325 66.9514L113.326 67.0013L113.326 126.245L113.277 150.201H105.352C96.5433 150.201 89.4028 143.051 89.4028 134.23V65.6288C89.3692 64.9885 89.1173 63.9568 88.2682 63.9568C87.4192 63.9568 87.1672 64.9885 87.1337 65.6288V122.951L87.1339 122.96C87.1349 122.998 87.1358 123.033 87.1366 123.075C87.1414 123.315 87.1438 123.615 87.1391 123.974C87.1297 124.686 87.0922 125.649 86.985 126.769C86.7772 128.94 86.2766 132.082 84.9987 135.403C83.7189 138.729 81.4647 142.718 77.47 145.909C73.3049 149.236 68.0791 151 62.163 151C56.2469 151 51.021 149.236 46.8559 145.909C42.8612 142.718 40.6071 138.729 39.3272 135.403C38.0493 132.082 37.5488 128.94 37.3409 126.769C37.2338 125.649 37.1962 124.686 37.1869 123.974C37.1822 123.615 37.1845 123.315 37.1893 123.075C37.1901 123.033 37.1913 122.988 37.1923 122.951V65.6288C37.1586 64.9885 36.9068 63.9568 36.0577 63.9568C35.2086 63.9568 34.9567 64.9885 34.9231 65.6288Z" fill="#7A00A3"/>
<path d="M172.857 96.3926C177.922 102.103 181 109.621 181 117.859C181 135.721 166.54 150.201 148.703 150.201H116.408V150.163C117.188 149.434 129.149 138.26 141.889 126.245H148.703C153.328 126.245 157.077 122.49 157.077 117.859C157.076 116.134 156.556 114.531 155.663 113.198C163.866 105.39 170.639 98.8475 172.586 96.6982C172.678 96.5975 172.767 96.4944 172.857 96.3926Z" fill="#7A00A3"/>
<path fill-rule="evenodd" clip-rule="evenodd" d="M175.176 89.4424C176.018 88.0829 176.769 86.6436 177.419 85.1293C184.457 68.718 176.878 49.6999 160.49 42.6514C144.101 35.6028 125.11 43.1929 118.072 59.6042C117.422 61.1185 116.897 62.6551 116.492 64.2023C115.561 67.7595 115.544 74.905 115.544 74.905L115.517 147.509L168.079 97.5003C168.079 97.5003 173.242 92.568 175.176 89.4424ZM154.731 78.867C154.959 78.5026 155.161 78.1164 155.334 77.7094C157.208 73.2989 154.978 68.1253 150.353 66.1539C145.727 64.1826 140.458 66.1599 138.583 70.5704C138.41 70.9774 138.272 71.3909 138.168 71.8078C137.928 72.7661 137.964 74.6986 137.964 74.6986C137.964 74.6986 138.422 87.8169 138.376 94.3345C143.035 89.783 152.792 81.0181 152.792 81.0181C152.792 81.0181 154.208 79.7046 154.731 78.867Z" fill="#AB34D3"/>
</svg>
