<svg width="512" height="512" viewBox="0 0 512 512" fill="none" xmlns="http://www.w3.org/2000/svg">
<path d="M80.6734 170.423V369.602C80.6734 394.704 60.312 415 35.195 415H12V346.367V174.641C12 174.641 12 174.679 12 174.57L12.0002 174.498L12.001 174.355C12.0017 174.254 12.0028 174.121 12.0045 173.998C12.008 173.751 12.0139 173.475 12.0236 173.14C12.0429 172.471 12.0777 171.631 12.1393 170.638C12.262 168.662 12.4949 166 12.9415 162.916C13.8093 156.924 15.6078 148.375 19.5403 139.324C23.4769 130.263 30.1091 119.446 41.2879 110.87C52.9318 101.936 67.437 97 83.9303 97C100.424 97 114.929 101.936 126.573 110.87C137.752 119.446 144.384 130.263 148.32 139.324C152.253 148.375 154.051 156.924 154.919 162.916C155.366 166 155.539 167.612 155.721 170.638C155.78 171.614 155.837 173.14 155.837 173.14C155.847 173.475 155.856 173.998 155.856 173.998L155.86 174.355L155.861 340.576C155.76 342.63 155.957 346.367 158.868 346.367C161.779 346.367 161.975 342.63 161.875 340.576L161.875 174.57L161.875 174.498L161.876 174.355L161.877 174.212L161.88 173.998C161.883 173.751 161.889 173.475 161.899 173.14C161.918 172.471 161.953 171.631 162.014 170.638C162.137 168.662 162.37 166 162.817 162.916C163.684 156.924 165.483 148.375 169.415 139.324C173.352 130.263 179.984 119.446 191.163 110.87C202.807 101.936 217.312 97 233.805 97C250.299 97 264.804 101.936 276.448 110.87C287.627 119.446 294.259 130.263 298.195 139.324C302.128 148.375 303.926 156.924 304.794 162.916C305.241 166 305.474 168.662 305.596 170.638C305.658 171.631 305.693 172.471 305.712 173.14C305.722 173.475 305.728 173.751 305.731 173.998L305.734 174.212L305.735 174.355L305.736 344.079L305.596 412.712H282.844C257.56 412.712 237.062 392.227 237.062 366.957V170.423C236.966 168.589 236.243 165.633 233.805 165.633C231.368 165.633 230.645 168.589 230.548 170.423V334.642C230.551 334.76 230.554 334.868 230.557 335C230.571 335.685 230.577 336.547 230.564 337.573C230.537 339.615 230.429 342.372 230.122 345.58C229.525 351.802 228.088 360.802 224.42 370.317C220.746 379.846 214.275 391.275 202.808 400.415C190.852 409.946 175.851 415 158.868 415C141.885 415 126.884 409.946 114.928 400.415C103.46 391.275 96.9897 379.846 93.3158 370.317C89.6475 360.802 88.2106 351.802 87.614 345.58C87.3063 342.372 87.1986 339.615 87.1718 337.573C87.1583 336.547 87.165 335.685 87.1787 335C87.1811 334.879 87.1845 334.749 87.1872 334.642V170.423C87.0907 168.589 86.3677 165.633 83.9303 165.633C81.4929 165.633 80.77 168.589 80.6734 170.423Z" fill="#7A00A3"/>
<path d="M476.633 258.557C491.17 274.917 500 296.457 500 320.058C500 371.23 458.493 412.712 407.291 412.712H314.582V412.605C316.811 410.527 351.153 378.508 387.731 344.079H407.291C420.565 344.079 431.327 333.325 431.327 320.058C431.327 315.117 429.833 310.526 427.274 306.707C450.822 284.336 470.258 265.589 475.849 259.432C476.112 259.142 476.373 258.85 476.633 258.557Z" fill="#7A00A3"/>
<path fill-rule="evenodd" clip-rule="evenodd" d="M483.283 238.646C485.699 234.751 487.855 230.628 489.72 226.29C509.925 179.273 488.167 124.789 441.123 104.596C394.08 84.4028 339.564 106.147 319.359 153.164C317.494 157.502 315.987 161.904 314.824 166.337C312.151 176.527 312.102 196.998 312.102 196.998L312.026 405L462.908 261.731C462.908 261.731 477.729 247.6 483.283 238.646ZM424.594 208.349C425.247 207.305 425.827 206.198 426.323 205.032C431.704 192.397 425.302 177.575 412.024 171.928C398.746 166.28 383.62 171.945 378.239 184.58C377.743 185.746 377.347 186.931 377.047 188.125C376.358 190.871 376.463 196.407 376.463 196.407C376.463 196.407 377.775 233.989 377.644 252.661C391.018 239.622 419.027 214.511 419.027 214.511C419.027 214.511 423.092 210.749 424.594 208.349Z" fill="#AB34D3"/>
</svg>
