<svg xmlns="http://www.w3.org/2000/svg" width="256" height="256" viewBox="0 0 256 256" fill="none">
  <rect width="256" height="256" rx="128" fill="#1976D2"/>
  <path d="M128 28C85.5 28 76 65.6 76 65.6V114H64V171C64 182 73 191 84 191H92V215C92 221.6 97.4 227 104 227C110.6 227 116 221.6 116 215V191H140V215C140 221.6 145.4 227 152 227C158.6 227 164 221.6 164 215V191H172C183 191 192 182 192 171V114H180V65.6C180 65.6 170.5 28 128 28ZM95 154C89.5 154 85 149.5 85 144C85 138.5 89.5 134 95 134C100.5 134 105 138.5 105 144C105 149.5 100.5 154 95 154ZM161 154C155.5 154 151 149.5 151 144C151 138.5 155.5 134 161 134C166.5 134 171 138.5 171 144C171 149.5 166.5 154 161 154ZM172 103H84V69H172V103Z" fill="white"/>
</svg> 